<svg id="visual" viewBox="0 0 900 600" width="900" height="600" xmlns="http://www.w3.org/2000/svg" xmlns:xlink="http://www.w3.org/1999/xlink" version="1.1"><rect x="0" y="0" width="900" height="600" fill="#333745"></rect><path d="M0 364L129 374L257 401L386 369L514 396L643 378L771 441L900 441L900 601L771 601L643 601L514 601L386 601L257 601L129 601L0 601Z" fill="#fe5f55"></path><path d="M0 396L129 426L257 456L386 468L514 421L643 431L771 404L900 457L900 601L771 601L643 601L514 601L386 601L257 601L129 601L0 601Z" fill="#f95558"></path><path d="M0 498L129 509L257 475L386 507L514 453L643 511L771 476L900 446L900 601L771 601L643 601L514 601L386 601L257 601L129 601L0 601Z" fill="#f34a5b"></path><path d="M0 536L129 486L257 493L386 493L514 514L643 514L771 493L900 497L900 601L771 601L643 601L514 601L386 601L257 601L129 601L0 601Z" fill="#ed3f5e"></path><path d="M0 560L129 543L257 558L386 571L514 555L643 538L771 536L900 538L900 601L771 601L643 601L514 601L386 601L257 601L129 601L0 601Z" fill="#e63462"></path></svg>